<svg width="200" height="60" viewBox="0 0 200 60" fill="none" xmlns="http://www.w3.org/2000/svg">
  <!-- Medical Cross with Queue Symbol -->
  <g id="logo-mark">
    <!-- Outer rounded square background -->
    <rect x="2" y="2" width="56" height="56" rx="12" fill="#0891B2" opacity="0.1"/>
    
    <!-- Medical Cross -->
    <path d="M30 16 C28 16 26 17.5 26 20 L26 24 L22 24 C19.5 24 18 26 18 28 L18 32 C18 34 19.5 36 22 36 L26 36 L26 40 C26 42.5 28 44 30 44 L34 44 C36 44 38 42.5 38 40 L38 36 L42 36 C44.5 36 46 34 46 32 L46 28 C46 26 44.5 24 42 24 L38 24 L38 20 C38 17.5 36 16 34 16 Z" 
          fill="#0891B2"/>
    
    <!-- Pulse line accent -->
    <path d="M6 50 L12 50 L16 44 L20 56 L24 46 L28 50 L54 50" 
          stroke="#22C55E" 
          stroke-width="2.5" 
          stroke-linecap="round" 
          stroke-linejoin="round"
          fill="none"/>
    
    <!-- Queue dots -->
    <circle cx="48" cy="14" r="2.5" fill="#22D3EE"/>
    <circle cx="54" cy="14" r="2.5" fill="#22D3EE" opacity="0.7"/>
    <circle cx="42" cy="14" r="2.5" fill="#22D3EE" opacity="0.5"/>
  </g>
  
  <!-- Text: HealthQueue -->
  <text x="68" y="28" font-family="Figtree, sans-serif" font-size="20" font-weight="700" fill="#134E4A">
    Health<tspan fill="#0891B2">Queue</tspan>
  </text>
  
  <!-- Tagline -->
  <text x="68" y="44" font-family="Noto Sans, sans-serif" font-size="9" font-weight="400" fill="#5EEAD4">
    Healthcare Without The Waiting
  </text>
</svg>
